<svg xmlns="http://www.w3.org/2000/svg" xmlns:xlink="http://www.w3.org/1999/xlink" width="500" zoomAndPan="magnify" viewBox="0 0 375 374.999991" height="500" preserveAspectRatio="xMidYMid meet" version="1.0"><defs><g/></defs><g fill="#faa1d4" fill-opacity="1"><g transform="translate(59.098004, 268.075391)"><g><path d="M 151.96875 -5.9375 L 151.96875 -154.921875 C 151.96875 -159.578125 150.554688 -163.707031 147.734375 -167.3125 C 144.910156 -170.925781 141.023438 -172.734375 136.078125 -172.734375 C 131.234375 -172.734375 127.425781 -171 124.65625 -167.53125 C 121.882812 -164.070312 120.398438 -160.066406 120.203125 -155.515625 L 120.203125 -5.640625 C 120.203125 -4.054688 119.929688 -2.71875 119.390625 -1.625 C 118.847656 -0.539062 117.6875 0 115.90625 0 L 84.59375 0 C 83.601562 0 82.6875 -0.566406 81.84375 -1.703125 C 81 -2.835938 80.578125 -4.195312 80.578125 -5.78125 L 80.578125 -154.921875 C 80.578125 -159.578125 79.191406 -163.707031 76.421875 -167.3125 C 73.648438 -170.925781 69.789062 -172.734375 64.84375 -172.734375 C 59.800781 -172.734375 55.894531 -170.925781 53.125 -167.3125 C 50.351562 -163.707031 48.96875 -159.578125 48.96875 -154.921875 L 48.96875 -5.78125 C 48.96875 -4.195312 48.671875 -2.835938 48.078125 -1.703125 C 47.484375 -0.566406 46.296875 0 44.515625 0 L 13.203125 0 C 12.210938 0 11.320312 -0.566406 10.53125 -1.703125 C 9.738281 -2.835938 9.34375 -4.195312 9.34375 -5.78125 L 9.34375 -157.15625 C 9.34375 -164.28125 10.828125 -170.957031 13.796875 -177.1875 C 16.765625 -183.414062 20.796875 -188.878906 25.890625 -193.578125 C 30.984375 -198.285156 36.867188 -201.972656 43.546875 -204.640625 C 50.234375 -207.316406 57.285156 -208.65625 64.703125 -208.65625 C 71.328125 -208.65625 77.707031 -207.566406 83.84375 -205.390625 C 89.976562 -203.210938 95.46875 -200.191406 100.3125 -196.328125 C 105.164062 -200.191406 110.65625 -203.210938 116.78125 -205.390625 C 122.914062 -207.566406 129.300781 -208.65625 135.9375 -208.65625 C 143.351562 -208.65625 150.398438 -207.316406 157.078125 -204.640625 C 163.753906 -201.972656 169.664062 -198.285156 174.8125 -193.578125 C 179.957031 -188.878906 184.015625 -183.414062 186.984375 -177.1875 C 189.953125 -170.957031 191.4375 -164.28125 191.4375 -157.15625 L 191.4375 -5.9375 C 191.4375 -4.445312 191.085938 -3.082031 190.390625 -1.84375 C 189.703125 -0.613281 188.515625 0 186.828125 0 L 156.703125 0 C 155.117188 0 153.929688 -0.59375 153.140625 -1.78125 C 152.359375 -2.96875 151.96875 -4.351562 151.96875 -5.9375 Z M 151.96875 -5.9375 "/></g></g></g><path stroke-linecap="butt" transform="matrix(0.816788, 0, 0, 0.816788, 174.757083, 141.511851)" fill="none" stroke-linejoin="miter" d="M 130.781771 145.893258 L 130.781771 17.666209 C 130.781771 13.663298 129.567029 10.109938 127.142327 7.001345 C 124.712842 3.892753 121.36991 2.338456 117.113529 2.338456 C 112.943233 2.338456 109.662472 3.830581 107.280812 6.810047 C 104.894369 9.789514 103.617455 13.23766 103.45007 17.154487 L 103.45007 146.146728 C 103.45007 147.509726 103.215729 148.657514 102.747049 149.594874 C 102.278369 150.532235 101.278837 151.000915 99.743671 151.000915 L 72.799347 151.000915 C 71.948071 151.000915 71.158967 150.508322 70.436817 149.532703 C 69.709885 148.5523 69.351201 147.3806 69.351201 146.017602 L 69.351201 17.666209 C 69.351201 13.663298 68.155589 10.109938 65.773928 7.001345 C 63.387486 3.892753 60.068466 2.338456 55.812085 2.338456 C 51.46962 2.338456 48.107558 3.892753 45.721116 7.001345 C 43.339455 10.109938 42.143843 13.663298 42.143843 17.666209 L 42.143843 146.017602 C 42.143843 147.3806 41.890373 148.5523 41.378651 149.532703 C 40.866929 150.508322 39.848267 151.000915 38.313101 151.000915 L 11.368777 151.000915 C 10.517501 151.000915 9.747527 150.508322 9.068419 149.532703 C 8.384528 148.5523 8.044974 147.3806 8.044974 146.017602 L 8.044974 15.748446 C 8.044974 9.617345 9.321889 3.873623 11.875717 -1.492286 C 14.429545 -6.853412 17.901604 -11.559343 22.287111 -15.605296 C 26.672617 -19.646466 31.737232 -22.822013 37.485737 -25.117589 C 43.229459 -27.417947 49.298388 -28.565735 55.682959 -28.565735 C 61.388422 -28.565735 66.878674 -27.628375 72.158499 -25.758437 C 77.438324 -23.883717 82.163385 -21.286847 86.333681 -17.967826 C 90.50876 -21.286847 95.23382 -23.883717 100.513645 -25.758437 C 105.788688 -27.628375 111.283723 -28.565735 116.984403 -28.565735 C 123.373756 -28.565735 129.437903 -27.417947 135.186408 -25.117589 C 140.934913 -22.822013 146.018657 -19.646466 150.447206 -15.605296 C 154.875754 -11.559343 158.366943 -6.853412 160.920771 -1.492286 C 163.474599 3.873623 164.751514 9.617345 164.751514 15.748446 L 164.751514 145.893258 C 164.751514 147.170172 164.455002 148.33709 163.857195 149.403576 C 163.264172 150.470063 162.240727 151.000915 160.791645 151.000915 L 134.865984 151.000915 C 133.502985 151.000915 132.484323 150.489193 131.800433 149.465748 C 131.121325 148.447086 130.781771 147.251474 130.781771 145.893258 Z M 130.781771 145.893258 " stroke="#faa1d4" stroke-width="5.885258" stroke-opacity="1" stroke-miterlimit="4"/><g fill="#ffffff" fill-opacity="1"><g transform="translate(174.757083, 264.846909)"><g><path d="M 106.828125 -4.171875 L 106.828125 -108.90625 C 106.828125 -112.175781 105.832031 -115.078125 103.84375 -117.609375 C 101.863281 -120.148438 99.132812 -121.421875 95.65625 -121.421875 C 92.25 -121.421875 89.570312 -120.203125 87.625 -117.765625 C 85.675781 -115.335938 84.632812 -112.523438 84.5 -109.328125 L 84.5 -3.96875 C 84.5 -2.851562 84.304688 -1.910156 83.921875 -1.140625 C 83.535156 -0.378906 82.71875 0 81.46875 0 L 59.453125 0 C 58.765625 0 58.125 -0.398438 57.53125 -1.203125 C 56.9375 -2.003906 56.640625 -2.957031 56.640625 -4.0625 L 56.640625 -108.90625 C 56.640625 -112.175781 55.664062 -115.078125 53.71875 -117.609375 C 51.769531 -120.148438 49.0625 -121.421875 45.59375 -121.421875 C 42.039062 -121.421875 39.289062 -120.148438 37.34375 -117.609375 C 35.394531 -115.078125 34.421875 -112.175781 34.421875 -108.90625 L 34.421875 -4.0625 C 34.421875 -2.957031 34.210938 -2.003906 33.796875 -1.203125 C 33.378906 -0.398438 32.546875 0 31.296875 0 L 9.28125 0 C 8.582031 0 7.957031 -0.398438 7.40625 -1.203125 C 6.851562 -2.003906 6.578125 -2.957031 6.578125 -4.0625 L 6.578125 -110.46875 C 6.578125 -115.476562 7.617188 -120.171875 9.703125 -124.546875 C 11.785156 -128.929688 14.617188 -132.773438 18.203125 -136.078125 C 21.785156 -139.378906 25.921875 -141.96875 30.609375 -143.84375 C 35.304688 -145.726562 40.265625 -146.671875 45.484375 -146.671875 C 50.140625 -146.671875 54.625 -145.90625 58.9375 -144.375 C 63.25 -142.84375 67.109375 -140.722656 70.515625 -138.015625 C 73.921875 -140.722656 77.78125 -142.84375 82.09375 -144.375 C 86.40625 -145.90625 90.890625 -146.671875 95.546875 -146.671875 C 100.765625 -146.671875 105.71875 -145.726562 110.40625 -143.84375 C 115.101562 -141.96875 119.257812 -139.378906 122.875 -136.078125 C 126.5 -132.773438 129.351562 -128.929688 131.4375 -124.546875 C 133.519531 -120.171875 134.5625 -115.476562 134.5625 -110.46875 L 134.5625 -4.171875 C 134.5625 -3.128906 134.316406 -2.171875 133.828125 -1.296875 C 133.347656 -0.429688 132.515625 0 131.328125 0 L 110.15625 0 C 109.039062 0 108.207031 -0.414062 107.65625 -1.25 C 107.101562 -2.082031 106.828125 -3.054688 106.828125 -4.171875 Z M 106.828125 -4.171875 "/></g></g></g><g fill="#faa1d4" fill-opacity="1"><g transform="translate(68.371958, 314.175404)"><g><path d="M 31.8125 -1.21875 L 31.8125 -25.03125 C 31.789062 -26.3125 31.492188 -27.210938 30.921875 -27.734375 C 30.347656 -28.265625 29.710938 -28.550781 29.015625 -28.59375 L 28.5625 -28.59375 C 27.820312 -28.570312 27.175781 -28.289062 26.625 -27.75 C 26.082031 -27.21875 25.8125 -26.265625 25.8125 -24.890625 L 25.8125 -1.21875 C 25.8125 -0.875 25.71875 -0.582031 25.53125 -0.34375 C 25.34375 -0.113281 25.085938 0 24.765625 0 L 17.984375 0 C 17.285156 0 16.9375 -0.40625 16.9375 -1.21875 L 16.9375 -24.796875 C 16.914062 -25.796875 16.734375 -26.566406 16.390625 -27.109375 C 16.054688 -27.660156 15.65625 -28.046875 15.1875 -28.265625 C 14.71875 -28.484375 14.265625 -28.59375 13.828125 -28.59375 L 13.578125 -28.59375 C 12.859375 -28.550781 12.238281 -28.25 11.71875 -27.6875 C 11.195312 -27.132812 10.9375 -26.097656 10.9375 -24.578125 L 10.9375 -1.1875 C 10.9375 -0.882812 10.84375 -0.609375 10.65625 -0.359375 C 10.46875 -0.117188 10.207031 0 9.875 0 L 3.109375 0 C 2.429688 0 2.09375 -0.394531 2.09375 -1.1875 L 2.09375 -24.796875 C 2.164062 -27.140625 2.554688 -29.066406 3.265625 -30.578125 C 3.972656 -32.097656 4.894531 -33.28125 6.03125 -34.125 C 7.175781 -34.976562 8.421875 -35.570312 9.765625 -35.90625 C 11.117188 -36.25 12.460938 -36.421875 13.796875 -36.421875 L 14.03125 -36.421875 C 15.59375 -36.421875 17.007812 -36.128906 18.28125 -35.546875 C 19.550781 -34.960938 20.613281 -34.03125 21.46875 -32.75 C 22.3125 -34.007812 23.359375 -34.9375 24.609375 -35.53125 C 25.867188 -36.125 27.257812 -36.421875 28.78125 -36.421875 L 29.046875 -36.421875 C 32.796875 -36.421875 35.671875 -35.382812 37.671875 -33.3125 C 39.679688 -31.238281 40.6875 -28.316406 40.6875 -24.546875 L 40.6875 -1.21875 C 40.6875 -0.875 40.59375 -0.582031 40.40625 -0.34375 C 40.21875 -0.113281 39.960938 0 39.640625 0 L 32.859375 0 C 32.160156 0 31.8125 -0.40625 31.8125 -1.21875 Z M 31.8125 -1.21875 "/></g></g></g><g fill="#faa1d4" fill-opacity="1"><g transform="translate(111.110941, 314.175404)"><g><path d="M 16.515625 -10.375 L 16.515625 -15.671875 L 14.875 -15.671875 C 13.613281 -15.671875 12.628906 -15.472656 11.921875 -15.078125 C 11.210938 -14.679688 10.71875 -14.15625 10.4375 -13.5 C 10.15625 -12.851562 10.015625 -12.148438 10.015625 -11.390625 L 10.015625 -10.859375 C 10.015625 -9.972656 10.1875 -9.25 10.53125 -8.6875 C 10.882812 -8.132812 11.320312 -7.726562 11.84375 -7.46875 C 12.375 -7.21875 12.894531 -7.09375 13.40625 -7.09375 C 14.15625 -7.09375 14.859375 -7.351562 15.515625 -7.875 C 16.179688 -8.394531 16.515625 -9.226562 16.515625 -10.375 Z M 12.390625 -22 L 16.515625 -21.96875 L 16.515625 -24.4375 C 16.515625 -25.164062 16.363281 -25.894531 16.0625 -26.625 C 15.757812 -27.351562 15.285156 -27.96875 14.640625 -28.46875 C 14.003906 -28.976562 13.160156 -29.234375 12.109375 -29.234375 C 10.691406 -29.234375 9.492188 -29.039062 8.515625 -28.65625 C 7.535156 -28.269531 6.722656 -27.84375 6.078125 -27.375 C 5.910156 -27.28125 5.738281 -27.191406 5.5625 -27.109375 C 5.394531 -27.035156 5.226562 -27 5.0625 -27 C 4.78125 -27 4.5625 -27.148438 4.40625 -27.453125 L 2.65625 -31.328125 C 2.488281 -31.648438 2.421875 -31.984375 2.453125 -32.328125 C 2.492188 -32.679688 2.804688 -33.035156 3.390625 -33.390625 C 4.242188 -33.921875 5.140625 -34.410156 6.078125 -34.859375 C 7.023438 -35.316406 8.097656 -35.691406 9.296875 -35.984375 C 10.503906 -36.273438 11.921875 -36.421875 13.546875 -36.421875 C 14.992188 -36.421875 16.414062 -36.179688 17.8125 -35.703125 C 19.207031 -35.222656 20.46875 -34.507812 21.59375 -33.5625 C 22.726562 -32.625 23.628906 -31.460938 24.296875 -30.078125 C 24.972656 -28.691406 25.3125 -27.09375 25.3125 -25.28125 L 25.3125 -10.0625 C 25.3125 -8.3125 25.019531 -6.816406 24.4375 -5.578125 C 23.863281 -4.347656 23.109375 -3.328125 22.171875 -2.515625 C 21.242188 -1.703125 20.238281 -1.0625 19.15625 -0.59375 C 18.070312 -0.125 17.007812 0.195312 15.96875 0.375 C 14.9375 0.5625 14.046875 0.65625 13.296875 0.65625 C 11.929688 0.65625 10.535156 0.441406 9.109375 0.015625 C 7.691406 -0.410156 6.382812 -1.078125 5.1875 -1.984375 C 3.988281 -2.898438 3.019531 -4.078125 2.28125 -5.515625 C 1.550781 -6.960938 1.1875 -8.695312 1.1875 -10.71875 L 1.1875 -11.484375 C 1.1875 -13.347656 1.488281 -14.941406 2.09375 -16.265625 C 2.695312 -17.597656 3.519531 -18.6875 4.5625 -19.53125 C 5.613281 -20.382812 6.816406 -21.007812 8.171875 -21.40625 C 9.523438 -21.800781 10.929688 -22 12.390625 -22 Z M 12.390625 -22 "/></g></g></g><g fill="#faa1d4" fill-opacity="1"><g transform="translate(137.927557, 314.175404)"><g><path d="M 31.8125 -1.21875 L 31.8125 -25.03125 C 31.789062 -26.3125 31.492188 -27.210938 30.921875 -27.734375 C 30.347656 -28.265625 29.710938 -28.550781 29.015625 -28.59375 L 28.5625 -28.59375 C 27.820312 -28.570312 27.175781 -28.289062 26.625 -27.75 C 26.082031 -27.21875 25.8125 -26.265625 25.8125 -24.890625 L 25.8125 -1.21875 C 25.8125 -0.875 25.71875 -0.582031 25.53125 -0.34375 C 25.34375 -0.113281 25.085938 0 24.765625 0 L 17.984375 0 C 17.285156 0 16.9375 -0.40625 16.9375 -1.21875 L 16.9375 -24.796875 C 16.914062 -25.796875 16.734375 -26.566406 16.390625 -27.109375 C 16.054688 -27.660156 15.65625 -28.046875 15.1875 -28.265625 C 14.71875 -28.484375 14.265625 -28.59375 13.828125 -28.59375 L 13.578125 -28.59375 C 12.859375 -28.550781 12.238281 -28.25 11.71875 -27.6875 C 11.195312 -27.132812 10.9375 -26.097656 10.9375 -24.578125 L 10.9375 -1.1875 C 10.9375 -0.882812 10.84375 -0.609375 10.65625 -0.359375 C 10.46875 -0.117188 10.207031 0 9.875 0 L 3.109375 0 C 2.429688 0 2.09375 -0.394531 2.09375 -1.1875 L 2.09375 -24.796875 C 2.164062 -27.140625 2.554688 -29.066406 3.265625 -30.578125 C 3.972656 -32.097656 4.894531 -33.28125 6.03125 -34.125 C 7.175781 -34.976562 8.421875 -35.570312 9.765625 -35.90625 C 11.117188 -36.25 12.460938 -36.421875 13.796875 -36.421875 L 14.03125 -36.421875 C 15.59375 -36.421875 17.007812 -36.128906 18.28125 -35.546875 C 19.550781 -34.960938 20.613281 -34.03125 21.46875 -32.75 C 22.3125 -34.007812 23.359375 -34.9375 24.609375 -35.53125 C 25.867188 -36.125 27.257812 -36.421875 28.78125 -36.421875 L 29.046875 -36.421875 C 32.796875 -36.421875 35.671875 -35.382812 37.671875 -33.3125 C 39.679688 -31.238281 40.6875 -28.316406 40.6875 -24.546875 L 40.6875 -1.21875 C 40.6875 -0.875 40.59375 -0.582031 40.40625 -0.34375 C 40.21875 -0.113281 39.960938 0 39.640625 0 L 32.859375 0 C 32.160156 0 31.8125 -0.40625 31.8125 -1.21875 Z M 31.8125 -1.21875 "/></g></g></g><g fill="#faa1d4" fill-opacity="1"><g transform="translate(180.66654, 314.175404)"><g><path d="M 16.515625 -10.375 L 16.515625 -15.671875 L 14.875 -15.671875 C 13.613281 -15.671875 12.628906 -15.472656 11.921875 -15.078125 C 11.210938 -14.679688 10.71875 -14.15625 10.4375 -13.5 C 10.15625 -12.851562 10.015625 -12.148438 10.015625 -11.390625 L 10.015625 -10.859375 C 10.015625 -9.972656 10.1875 -9.25 10.53125 -8.6875 C 10.882812 -8.132812 11.320312 -7.726562 11.84375 -7.46875 C 12.375 -7.21875 12.894531 -7.09375 13.40625 -7.09375 C 14.15625 -7.09375 14.859375 -7.351562 15.515625 -7.875 C 16.179688 -8.394531 16.515625 -9.226562 16.515625 -10.375 Z M 12.390625 -22 L 16.515625 -21.96875 L 16.515625 -24.4375 C 16.515625 -25.164062 16.363281 -25.894531 16.0625 -26.625 C 15.757812 -27.351562 15.285156 -27.96875 14.640625 -28.46875 C 14.003906 -28.976562 13.160156 -29.234375 12.109375 -29.234375 C 10.691406 -29.234375 9.492188 -29.039062 8.515625 -28.65625 C 7.535156 -28.269531 6.722656 -27.84375 6.078125 -27.375 C 5.910156 -27.28125 5.738281 -27.191406 5.5625 -27.109375 C 5.394531 -27.035156 5.226562 -27 5.0625 -27 C 4.78125 -27 4.5625 -27.148438 4.40625 -27.453125 L 2.65625 -31.328125 C 2.488281 -31.648438 2.421875 -31.984375 2.453125 -32.328125 C 2.492188 -32.679688 2.804688 -33.035156 3.390625 -33.390625 C 4.242188 -33.921875 5.140625 -34.410156 6.078125 -34.859375 C 7.023438 -35.316406 8.097656 -35.691406 9.296875 -35.984375 C 10.503906 -36.273438 11.921875 -36.421875 13.546875 -36.421875 C 14.992188 -36.421875 16.414062 -36.179688 17.8125 -35.703125 C 19.207031 -35.222656 20.46875 -34.507812 21.59375 -33.5625 C 22.726562 -32.625 23.628906 -31.460938 24.296875 -30.078125 C 24.972656 -28.691406 25.3125 -27.09375 25.3125 -25.28125 L 25.3125 -10.0625 C 25.3125 -8.3125 25.019531 -6.816406 24.4375 -5.578125 C 23.863281 -4.347656 23.109375 -3.328125 22.171875 -2.515625 C 21.242188 -1.703125 20.238281 -1.0625 19.15625 -0.59375 C 18.070312 -0.125 17.007812 0.195312 15.96875 0.375 C 14.9375 0.5625 14.046875 0.65625 13.296875 0.65625 C 11.929688 0.65625 10.535156 0.441406 9.109375 0.015625 C 7.691406 -0.410156 6.382812 -1.078125 5.1875 -1.984375 C 3.988281 -2.898438 3.019531 -4.078125 2.28125 -5.515625 C 1.550781 -6.960938 1.1875 -8.695312 1.1875 -10.71875 L 1.1875 -11.484375 C 1.1875 -13.347656 1.488281 -14.941406 2.09375 -16.265625 C 2.695312 -17.597656 3.519531 -18.6875 4.5625 -19.53125 C 5.613281 -20.382812 6.816406 -21.007812 8.171875 -21.40625 C 9.523438 -21.800781 10.929688 -22 12.390625 -22 Z M 12.390625 -22 "/></g></g></g><g fill="#faa1d4" fill-opacity="1"><g transform="translate(207.483156, 314.175404)"><g><path d="M 31.8125 -1.21875 L 31.8125 -25.03125 C 31.789062 -26.3125 31.492188 -27.210938 30.921875 -27.734375 C 30.347656 -28.265625 29.710938 -28.550781 29.015625 -28.59375 L 28.5625 -28.59375 C 27.820312 -28.570312 27.175781 -28.289062 26.625 -27.75 C 26.082031 -27.21875 25.8125 -26.265625 25.8125 -24.890625 L 25.8125 -1.21875 C 25.8125 -0.875 25.71875 -0.582031 25.53125 -0.34375 C 25.34375 -0.113281 25.085938 0 24.765625 0 L 17.984375 0 C 17.285156 0 16.9375 -0.40625 16.9375 -1.21875 L 16.9375 -24.796875 C 16.914062 -25.796875 16.734375 -26.566406 16.390625 -27.109375 C 16.054688 -27.660156 15.65625 -28.046875 15.1875 -28.265625 C 14.71875 -28.484375 14.265625 -28.59375 13.828125 -28.59375 L 13.578125 -28.59375 C 12.859375 -28.550781 12.238281 -28.25 11.71875 -27.6875 C 11.195312 -27.132812 10.9375 -26.097656 10.9375 -24.578125 L 10.9375 -1.1875 C 10.9375 -0.882812 10.84375 -0.609375 10.65625 -0.359375 C 10.46875 -0.117188 10.207031 0 9.875 0 L 3.109375 0 C 2.429688 0 2.09375 -0.394531 2.09375 -1.1875 L 2.09375 -24.796875 C 2.164062 -27.140625 2.554688 -29.066406 3.265625 -30.578125 C 3.972656 -32.097656 4.894531 -33.28125 6.03125 -34.125 C 7.175781 -34.976562 8.421875 -35.570312 9.765625 -35.90625 C 11.117188 -36.25 12.460938 -36.421875 13.796875 -36.421875 L 14.03125 -36.421875 C 15.59375 -36.421875 17.007812 -36.128906 18.28125 -35.546875 C 19.550781 -34.960938 20.613281 -34.03125 21.46875 -32.75 C 22.3125 -34.007812 23.359375 -34.9375 24.609375 -35.53125 C 25.867188 -36.125 27.257812 -36.421875 28.78125 -36.421875 L 29.046875 -36.421875 C 32.796875 -36.421875 35.671875 -35.382812 37.671875 -33.3125 C 39.679688 -31.238281 40.6875 -28.316406 40.6875 -24.546875 L 40.6875 -1.21875 C 40.6875 -0.875 40.59375 -0.582031 40.40625 -0.34375 C 40.21875 -0.113281 39.960938 0 39.640625 0 L 32.859375 0 C 32.160156 0 31.8125 -0.40625 31.8125 -1.21875 Z M 31.8125 -1.21875 "/></g></g></g><g fill="#faa1d4" fill-opacity="1"><g transform="translate(250.222139, 314.175404)"><g><path d="M 16.515625 -10.375 L 16.515625 -15.671875 L 14.875 -15.671875 C 13.613281 -15.671875 12.628906 -15.472656 11.921875 -15.078125 C 11.210938 -14.679688 10.71875 -14.15625 10.4375 -13.5 C 10.15625 -12.851562 10.015625 -12.148438 10.015625 -11.390625 L 10.015625 -10.859375 C 10.015625 -9.972656 10.1875 -9.25 10.53125 -8.6875 C 10.882812 -8.132812 11.320312 -7.726562 11.84375 -7.46875 C 12.375 -7.21875 12.894531 -7.09375 13.40625 -7.09375 C 14.15625 -7.09375 14.859375 -7.351562 15.515625 -7.875 C 16.179688 -8.394531 16.515625 -9.226562 16.515625 -10.375 Z M 12.390625 -22 L 16.515625 -21.96875 L 16.515625 -24.4375 C 16.515625 -25.164062 16.363281 -25.894531 16.0625 -26.625 C 15.757812 -27.351562 15.285156 -27.96875 14.640625 -28.46875 C 14.003906 -28.976562 13.160156 -29.234375 12.109375 -29.234375 C 10.691406 -29.234375 9.492188 -29.039062 8.515625 -28.65625 C 7.535156 -28.269531 6.722656 -27.84375 6.078125 -27.375 C 5.910156 -27.28125 5.738281 -27.191406 5.5625 -27.109375 C 5.394531 -27.035156 5.226562 -27 5.0625 -27 C 4.78125 -27 4.5625 -27.148438 4.40625 -27.453125 L 2.65625 -31.328125 C 2.488281 -31.648438 2.421875 -31.984375 2.453125 -32.328125 C 2.492188 -32.679688 2.804688 -33.035156 3.390625 -33.390625 C 4.242188 -33.921875 5.140625 -34.410156 6.078125 -34.859375 C 7.023438 -35.316406 8.097656 -35.691406 9.296875 -35.984375 C 10.503906 -36.273438 11.921875 -36.421875 13.546875 -36.421875 C 14.992188 -36.421875 16.414062 -36.179688 17.8125 -35.703125 C 19.207031 -35.222656 20.46875 -34.507812 21.59375 -33.5625 C 22.726562 -32.625 23.628906 -31.460938 24.296875 -30.078125 C 24.972656 -28.691406 25.3125 -27.09375 25.3125 -25.28125 L 25.3125 -10.0625 C 25.3125 -8.3125 25.019531 -6.816406 24.4375 -5.578125 C 23.863281 -4.347656 23.109375 -3.328125 22.171875 -2.515625 C 21.242188 -1.703125 20.238281 -1.0625 19.15625 -0.59375 C 18.070312 -0.125 17.007812 0.195312 15.96875 0.375 C 14.9375 0.5625 14.046875 0.65625 13.296875 0.65625 C 11.929688 0.65625 10.535156 0.441406 9.109375 0.015625 C 7.691406 -0.410156 6.382812 -1.078125 5.1875 -1.984375 C 3.988281 -2.898438 3.019531 -4.078125 2.28125 -5.515625 C 1.550781 -6.960938 1.1875 -8.695312 1.1875 -10.71875 L 1.1875 -11.484375 C 1.1875 -13.347656 1.488281 -14.941406 2.09375 -16.265625 C 2.695312 -17.597656 3.519531 -18.6875 4.5625 -19.53125 C 5.613281 -20.382812 6.816406 -21.007812 8.171875 -21.40625 C 9.523438 -21.800781 10.929688 -22 12.390625 -22 Z M 12.390625 -22 "/></g></g></g><g fill="#faa1d4" fill-opacity="1"><g transform="translate(277.038755, 314.175404)"><g><path d="M 16.546875 -19.203125 L 16.546875 -25.5625 C 16.546875 -26.351562 16.265625 -27.066406 15.703125 -27.703125 C 15.148438 -28.347656 14.394531 -28.671875 13.4375 -28.671875 C 12.488281 -28.671875 11.726562 -28.347656 11.15625 -27.703125 C 10.582031 -27.066406 10.296875 -26.363281 10.296875 -25.59375 L 10.296875 -19.203125 C 10.296875 -18.410156 10.585938 -17.691406 11.171875 -17.046875 C 11.753906 -16.410156 12.507812 -16.09375 13.4375 -16.09375 C 14.394531 -16.09375 15.148438 -16.410156 15.703125 -17.046875 C 16.265625 -17.691406 16.546875 -18.410156 16.546875 -19.203125 Z M 17.671875 -35.765625 L 27.265625 -35.765625 C 28.054688 -35.765625 28.453125 -35.425781 28.453125 -34.75 L 28.453125 -30.09375 C 28.453125 -29.695312 28.363281 -29.414062 28.1875 -29.25 C 28.019531 -29.09375 27.738281 -29.015625 27.34375 -29.015625 L 24.65625 -29.015625 C 24.882812 -28.367188 25.0625 -27.664062 25.1875 -26.90625 C 25.320312 -26.144531 25.390625 -25.359375 25.390625 -24.546875 L 25.390625 -20.390625 C 25.390625 -17.828125 24.851562 -15.644531 23.78125 -13.84375 C 22.707031 -12.039062 21.257812 -10.671875 19.4375 -9.734375 C 17.625 -8.804688 15.613281 -8.34375 13.40625 -8.34375 C 12.851562 -8.34375 12.304688 -8.367188 11.765625 -8.421875 C 11.234375 -8.484375 10.710938 -8.570312 10.203125 -8.6875 C 9.960938 -8.382812 9.796875 -8.054688 9.703125 -7.703125 C 9.609375 -7.359375 9.5625 -6.941406 9.5625 -6.453125 L 9.5625 -6.328125 C 9.5625 -5.671875 9.816406 -5.117188 10.328125 -4.671875 C 10.847656 -4.234375 11.476562 -4.015625 12.21875 -4.015625 L 17.984375 -4.015625 C 19.210938 -4.015625 20.367188 -3.90625 21.453125 -3.6875 C 22.535156 -3.46875 23.492188 -3.066406 24.328125 -2.484375 C 25.171875 -1.898438 25.832031 -1.070312 26.3125 0 C 26.789062 1.070312 27.03125 2.457031 27.03125 4.15625 L 27.03125 10.265625 C 27.03125 10.921875 26.710938 11.25 26.078125 11.25 L 19 11.25 C 18.695312 11.25 18.476562 11.160156 18.34375 10.984375 C 18.21875 10.804688 18.15625 10.601562 18.15625 10.375 L 18.15625 6.59375 C 18.15625 5.570312 17.914062 4.835938 17.4375 4.390625 C 16.957031 3.953125 16.242188 3.734375 15.296875 3.734375 L 9.15625 3.703125 L 8.625 3.703125 C 7.226562 3.703125 5.992188 3.320312 4.921875 2.5625 C 3.847656 1.8125 3.007812 0.847656 2.40625 -0.328125 C 1.800781 -1.503906 1.5 -2.722656 1.5 -3.984375 L 1.5 -5.171875 C 1.5 -6.566406 1.75 -7.882812 2.25 -9.125 C 2.75 -10.375 3.347656 -11.460938 4.046875 -12.390625 C 3.234375 -13.367188 2.597656 -14.515625 2.140625 -15.828125 C 1.691406 -17.148438 1.46875 -18.613281 1.46875 -20.21875 L 1.46875 -24.625 C 1.46875 -26.414062 1.773438 -28.03125 2.390625 -29.46875 C 3.003906 -30.914062 3.851562 -32.15625 4.9375 -33.1875 C 6.019531 -34.226562 7.28125 -35.023438 8.71875 -35.578125 C 10.164062 -36.140625 11.707031 -36.421875 13.34375 -36.421875 C 14.101562 -36.421875 14.84375 -36.363281 15.5625 -36.25 C 16.289062 -36.132812 16.992188 -35.972656 17.671875 -35.765625 Z M 17.671875 -35.765625 "/></g></g></g><path stroke-linecap="butt" transform="matrix(1.987279, 0, 0, 1.987279, 207.496983, 240.646098)" fill="none" stroke-linejoin="miter" d="M 16.009591 36.384948 L 16.009591 24.400516 C 15.997797 23.75579 15.84841 23.30173 15.561428 23.038335 C 15.274446 22.774941 14.954049 22.631451 14.604167 22.607863 L 14.374189 22.607863 C 14.00072 22.619657 13.674425 22.759216 13.399237 23.028507 C 13.12405 23.297798 12.986456 23.779377 12.986456 24.469313 L 12.986456 36.384948 C 12.986456 36.559889 12.939281 36.707311 12.846896 36.825249 C 12.752546 36.941221 12.622814 37.00019 12.459667 37.00019 L 9.049303 37.00019 C 8.699421 37.00019 8.522515 36.795765 8.522515 36.384948 L 8.522515 24.522384 C 8.510721 24.019184 8.420302 23.629989 8.251258 23.354802 C 8.080249 23.079614 7.877789 22.885016 7.643879 22.774941 C 7.409969 22.662901 7.181957 22.607863 6.959841 22.607863 L 6.836006 22.607863 C 6.472365 22.631451 6.15983 22.782804 5.896436 23.063889 C 5.633042 23.344973 5.501345 23.86783 5.501345 24.628528 L 5.501345 36.402639 C 5.501345 36.553992 5.45417 36.691586 5.35982 36.815421 C 5.26547 36.939255 5.137704 37.00019 4.972591 37.00019 L 1.564192 37.00019 C 1.224139 37.00019 1.055095 36.801662 1.055095 36.402639 L 1.055095 24.522384 C 1.090476 23.339077 1.285073 22.368056 1.642817 21.605393 C 2.000562 20.844695 2.466416 20.24911 3.040379 19.822568 C 3.614342 19.394061 4.241377 19.095286 4.921485 18.926242 C 5.599626 18.755232 6.273837 18.67071 6.94215 18.67071 L 7.064019 18.67071 C 7.85027 18.67071 8.561827 18.818133 9.198691 19.111011 C 9.83752 19.40389 10.374136 19.871709 10.806574 20.516435 C 11.229184 19.883503 11.755973 19.417649 12.388905 19.118874 C 13.021837 18.820098 13.719635 18.67071 14.480333 18.67071 L 14.621858 18.67071 C 16.506895 18.67071 17.953597 19.191602 18.961964 20.23535 C 19.968366 21.277133 20.473532 22.747423 20.473532 24.646219 L 20.473532 36.384948 C 20.473532 36.559889 20.426357 36.707311 20.332007 36.825249 C 20.237657 36.941221 20.109891 37.00019 19.944778 37.00019 L 16.536379 37.00019 C 16.184532 37.00019 16.009591 36.795765 16.009591 36.384948 Z M 29.818127 31.781448 L 29.818127 29.11016 L 28.992563 29.11016 C 28.359631 29.11016 27.864293 29.208441 27.508514 29.408935 C 27.15077 29.607464 26.901135 29.870858 26.761575 30.199118 C 26.62005 30.527377 26.549288 30.885122 26.549288 31.270385 L 26.549288 31.533779 C 26.549288 31.979976 26.637741 32.343618 26.812682 32.624702 C 26.989588 32.905787 27.209739 33.110212 27.473133 33.239944 C 27.736527 33.36771 27.99599 33.432575 28.253487 33.432575 C 28.628922 33.432575 28.982735 33.300878 29.316892 33.037484 C 29.651048 32.77409 29.818127 32.355411 29.818127 31.781448 Z M 27.744389 25.929774 L 29.818127 25.945499 L 29.818127 24.699291 C 29.818127 24.33565 29.741467 23.970043 29.590114 23.600505 C 29.436795 23.230967 29.20092 22.920398 28.878557 22.668797 C 28.556194 22.417197 28.131618 22.291397 27.60483 22.291397 C 26.889341 22.291397 26.285894 22.387713 25.794487 22.580344 C 25.30308 22.774941 24.892263 22.989195 24.564004 23.223104 C 24.481447 23.27028 24.396925 23.313523 24.308472 23.354802 C 24.221984 23.39608 24.135497 23.415736 24.054906 23.415736 C 23.913381 23.415736 23.803306 23.339077 23.720749 23.187723 L 22.842114 21.235855 C 22.759557 21.072708 22.728107 20.903664 22.745798 20.726757 C 22.763488 20.551816 22.918773 20.37491 23.211652 20.199969 C 23.64409 19.930678 24.09815 19.681043 24.571866 19.45303 C 25.047548 19.225017 25.58613 19.036317 26.189578 18.890861 C 26.793025 18.743439 27.504583 18.67071 28.32425 18.67071 C 29.051532 18.67071 29.765055 18.790614 30.46875 19.03042 C 31.172444 19.272193 31.807342 19.627971 32.375409 20.103653 C 32.943475 20.577369 33.397535 21.163127 33.737589 21.860924 C 34.077642 22.556757 34.246686 23.362664 34.246686 24.276681 L 34.246686 31.938698 C 34.246686 32.817334 34.10123 33.568204 33.808351 34.187376 C 33.515473 34.808515 33.134141 35.325475 32.664356 35.734326 C 32.196536 36.145142 31.689404 36.467505 31.144926 36.701414 C 30.600447 36.935324 30.067761 37.100437 29.54687 37.192821 C 29.024013 37.287172 28.57585 37.334347 28.202381 37.334347 C 27.51048 37.334347 26.806785 37.226237 26.093262 37.008052 C 25.377773 36.791833 24.719288 36.455711 24.11584 35.99772 C 23.512393 35.541694 23.026883 34.95004 22.657345 34.222758 C 22.287807 33.497441 22.103037 32.624702 22.103037 31.604542 L 22.103037 31.219278 C 22.103037 30.281674 22.256356 29.477732 22.561029 28.811384 C 22.865701 28.143071 23.280449 27.594661 23.809202 27.16812 C 24.335991 26.739613 24.939438 26.427078 25.61758 26.228549 C 26.297687 26.028055 27.007279 25.929774 27.744389 25.929774 Z M 43.329852 27.335198 L 43.329852 24.137121 C 43.329852 23.738099 43.190293 23.378389 42.909208 23.056026 C 42.628123 22.733663 42.246791 22.572482 41.765213 22.572482 C 41.285599 22.572482 40.902302 22.733663 40.61532 23.056026 C 40.328339 23.378389 40.184848 23.732202 40.184848 24.119431 L 40.184848 27.335198 C 40.184848 27.732255 40.330304 28.09393 40.623183 28.416293 C 40.916061 28.736691 41.297393 28.897872 41.765213 28.897872 C 42.246791 28.897872 42.628123 28.736691 42.909208 28.416293 C 43.190293 28.09393 43.329852 27.732255 43.329852 27.335198 Z M 43.892022 19.004867 L 48.725501 19.004867 C 49.122558 19.004867 49.323052 19.173911 49.323052 19.513965 L 49.323052 21.851096 C 49.323052 22.05159 49.277842 22.19115 49.191355 22.273706 C 49.102901 22.356263 48.95941 22.397541 48.760882 22.397541 L 47.406565 22.397541 C 47.524502 22.723835 47.614921 23.079614 47.679787 23.45898 C 47.744652 23.840312 47.776103 24.235403 47.776103 24.646219 L 47.776103 26.737647 C 47.776103 28.025133 47.506812 29.123919 46.96823 30.032039 C 46.429647 30.940159 45.702365 31.628129 44.788348 32.097914 C 43.874331 32.565734 42.862033 32.799643 41.749488 32.799643 C 41.466437 32.799643 41.191249 32.785884 40.921958 32.756399 C 40.652667 32.726915 40.389273 32.683671 40.131776 32.624702 C 40.013838 32.776056 39.933248 32.941168 39.886072 33.116109 C 39.838897 33.293016 39.81531 33.503338 39.81531 33.749041 L 39.81531 33.819804 C 39.81531 34.148064 39.945041 34.423252 40.202539 34.645368 C 40.460036 34.867484 40.776502 34.979525 41.151937 34.979525 L 44.051238 34.979525 C 44.672376 34.979525 45.254202 35.034562 45.798681 35.146603 C 46.34316 35.256678 46.826704 35.459138 47.249314 35.752016 C 47.669959 36.044895 48.00215 36.461608 48.241956 37.00019 C 48.481763 37.538772 48.601666 38.23657 48.601666 39.091618 L 48.601666 42.16586 C 48.601666 42.49412 48.444416 42.659232 48.12795 42.659232 L 44.560335 42.659232 C 44.407016 42.659232 44.298907 42.614023 44.236007 42.527535 C 44.171141 42.439082 44.137725 42.336869 44.137725 42.218932 L 44.137725 40.322101 C 44.137725 39.805141 44.017822 39.437568 43.778016 39.213487 C 43.538209 38.991371 43.178499 38.881296 42.69692 38.881296 L 39.604988 38.863605 L 39.341594 38.863605 C 38.637899 38.863605 38.01676 38.672939 37.478178 38.291607 C 36.939596 37.910276 36.516986 37.424766 36.212314 36.833112 C 35.907642 36.241458 35.756288 35.630147 35.756288 34.997215 L 35.756288 34.399664 C 35.756288 33.69597 35.882089 33.031587 36.133689 32.404552 C 36.385289 31.777517 36.687996 31.231072 37.039843 30.761287 C 36.629027 30.26988 36.310595 29.691986 36.080617 29.029569 C 35.852604 28.369118 35.738598 27.633973 35.738598 26.824135 L 35.738598 24.610838 C 35.738598 23.708615 35.893882 22.894845 36.204452 22.167562 C 36.515021 21.442246 36.941562 20.817176 37.488006 20.296285 C 38.032485 19.775393 38.667383 19.374405 39.394665 19.09332 C 40.119982 18.812236 40.892474 18.67071 41.714106 18.67071 C 42.099369 18.67071 42.474804 18.700195 42.838445 18.759164 C 43.202087 18.818133 43.551968 18.898723 43.892022 19.004867 Z M 43.892022 19.004867 " stroke="#faa1d4" stroke-width="1.754976" stroke-opacity="1" stroke-miterlimit="4"/><g fill="#ffffff" fill-opacity="1"><g transform="translate(207.496983, 314.175404)"><g><path d="M 31.8125 -1.21875 L 31.8125 -25.03125 C 31.789062 -26.3125 31.492188 -27.210938 30.921875 -27.734375 C 30.347656 -28.265625 29.710938 -28.550781 29.015625 -28.59375 L 28.5625 -28.59375 C 27.820312 -28.570312 27.175781 -28.289062 26.625 -27.75 C 26.082031 -27.21875 25.8125 -26.265625 25.8125 -24.890625 L 25.8125 -1.21875 C 25.8125 -0.875 25.71875 -0.582031 25.53125 -0.34375 C 25.34375 -0.113281 25.085938 0 24.765625 0 L 17.984375 0 C 17.285156 0 16.9375 -0.40625 16.9375 -1.21875 L 16.9375 -24.796875 C 16.914062 -25.796875 16.734375 -26.566406 16.390625 -27.109375 C 16.054688 -27.660156 15.65625 -28.046875 15.1875 -28.265625 C 14.71875 -28.484375 14.265625 -28.59375 13.828125 -28.59375 L 13.578125 -28.59375 C 12.859375 -28.550781 12.238281 -28.25 11.71875 -27.6875 C 11.195312 -27.132812 10.9375 -26.097656 10.9375 -24.578125 L 10.9375 -1.1875 C 10.9375 -0.882812 10.84375 -0.609375 10.65625 -0.359375 C 10.46875 -0.117188 10.207031 0 9.875 0 L 3.109375 0 C 2.429688 0 2.09375 -0.394531 2.09375 -1.1875 L 2.09375 -24.796875 C 2.164062 -27.140625 2.554688 -29.066406 3.265625 -30.578125 C 3.972656 -32.097656 4.894531 -33.28125 6.03125 -34.125 C 7.175781 -34.976562 8.421875 -35.570312 9.765625 -35.90625 C 11.117188 -36.25 12.460938 -36.421875 13.796875 -36.421875 L 14.03125 -36.421875 C 15.59375 -36.421875 17.007812 -36.128906 18.28125 -35.546875 C 19.550781 -34.960938 20.613281 -34.03125 21.46875 -32.75 C 22.3125 -34.007812 23.359375 -34.9375 24.609375 -35.53125 C 25.867188 -36.125 27.257812 -36.421875 28.78125 -36.421875 L 29.046875 -36.421875 C 32.796875 -36.421875 35.671875 -35.382812 37.671875 -33.3125 C 39.679688 -31.238281 40.6875 -28.316406 40.6875 -24.546875 L 40.6875 -1.21875 C 40.6875 -0.875 40.59375 -0.582031 40.40625 -0.34375 C 40.21875 -0.113281 39.960938 0 39.640625 0 L 32.859375 0 C 32.160156 0 31.8125 -0.40625 31.8125 -1.21875 Z M 31.8125 -1.21875 "/></g></g></g><g fill="#ffffff" fill-opacity="1"><g transform="translate(250.235966, 314.175404)"><g><path d="M 16.515625 -10.375 L 16.515625 -15.671875 L 14.875 -15.671875 C 13.613281 -15.671875 12.628906 -15.472656 11.921875 -15.078125 C 11.210938 -14.679688 10.71875 -14.15625 10.4375 -13.5 C 10.15625 -12.851562 10.015625 -12.148438 10.015625 -11.390625 L 10.015625 -10.859375 C 10.015625 -9.972656 10.1875 -9.25 10.53125 -8.6875 C 10.882812 -8.132812 11.320312 -7.726562 11.84375 -7.46875 C 12.375 -7.21875 12.894531 -7.09375 13.40625 -7.09375 C 14.15625 -7.09375 14.859375 -7.351562 15.515625 -7.875 C 16.179688 -8.394531 16.515625 -9.226562 16.515625 -10.375 Z M 12.390625 -22 L 16.515625 -21.96875 L 16.515625 -24.4375 C 16.515625 -25.164062 16.363281 -25.894531 16.0625 -26.625 C 15.757812 -27.351562 15.285156 -27.96875 14.640625 -28.46875 C 14.003906 -28.976562 13.160156 -29.234375 12.109375 -29.234375 C 10.691406 -29.234375 9.492188 -29.039062 8.515625 -28.65625 C 7.535156 -28.269531 6.722656 -27.84375 6.078125 -27.375 C 5.910156 -27.28125 5.738281 -27.191406 5.5625 -27.109375 C 5.394531 -27.035156 5.226562 -27 5.0625 -27 C 4.78125 -27 4.5625 -27.148438 4.40625 -27.453125 L 2.65625 -31.328125 C 2.488281 -31.648438 2.421875 -31.984375 2.453125 -32.328125 C 2.492188 -32.679688 2.804688 -33.035156 3.390625 -33.390625 C 4.242188 -33.921875 5.140625 -34.410156 6.078125 -34.859375 C 7.023438 -35.316406 8.097656 -35.691406 9.296875 -35.984375 C 10.503906 -36.273438 11.921875 -36.421875 13.546875 -36.421875 C 14.992188 -36.421875 16.414062 -36.179688 17.8125 -35.703125 C 19.207031 -35.222656 20.46875 -34.507812 21.59375 -33.5625 C 22.726562 -32.625 23.628906 -31.460938 24.296875 -30.078125 C 24.972656 -28.691406 25.3125 -27.09375 25.3125 -25.28125 L 25.3125 -10.0625 C 25.3125 -8.3125 25.019531 -6.816406 24.4375 -5.578125 C 23.863281 -4.347656 23.109375 -3.328125 22.171875 -2.515625 C 21.242188 -1.703125 20.238281 -1.0625 19.15625 -0.59375 C 18.070312 -0.125 17.007812 0.195312 15.96875 0.375 C 14.9375 0.5625 14.046875 0.65625 13.296875 0.65625 C 11.929688 0.65625 10.535156 0.441406 9.109375 0.015625 C 7.691406 -0.410156 6.382812 -1.078125 5.1875 -1.984375 C 3.988281 -2.898438 3.019531 -4.078125 2.28125 -5.515625 C 1.550781 -6.960938 1.1875 -8.695312 1.1875 -10.71875 L 1.1875 -11.484375 C 1.1875 -13.347656 1.488281 -14.941406 2.09375 -16.265625 C 2.695312 -17.597656 3.519531 -18.6875 4.5625 -19.53125 C 5.613281 -20.382812 6.816406 -21.007812 8.171875 -21.40625 C 9.523438 -21.800781 10.929688 -22 12.390625 -22 Z M 12.390625 -22 "/></g></g></g><g fill="#ffffff" fill-opacity="1"><g transform="translate(277.052582, 314.175404)"><g><path d="M 16.546875 -19.203125 L 16.546875 -25.5625 C 16.546875 -26.351562 16.265625 -27.066406 15.703125 -27.703125 C 15.148438 -28.347656 14.394531 -28.671875 13.4375 -28.671875 C 12.488281 -28.671875 11.726562 -28.347656 11.15625 -27.703125 C 10.582031 -27.066406 10.296875 -26.363281 10.296875 -25.59375 L 10.296875 -19.203125 C 10.296875 -18.410156 10.585938 -17.691406 11.171875 -17.046875 C 11.753906 -16.410156 12.507812 -16.09375 13.4375 -16.09375 C 14.394531 -16.09375 15.148438 -16.410156 15.703125 -17.046875 C 16.265625 -17.691406 16.546875 -18.410156 16.546875 -19.203125 Z M 17.671875 -35.765625 L 27.265625 -35.765625 C 28.054688 -35.765625 28.453125 -35.425781 28.453125 -34.75 L 28.453125 -30.09375 C 28.453125 -29.695312 28.363281 -29.414062 28.1875 -29.25 C 28.019531 -29.09375 27.738281 -29.015625 27.34375 -29.015625 L 24.65625 -29.015625 C 24.882812 -28.367188 25.0625 -27.664062 25.1875 -26.90625 C 25.320312 -26.144531 25.390625 -25.359375 25.390625 -24.546875 L 25.390625 -20.390625 C 25.390625 -17.828125 24.851562 -15.644531 23.78125 -13.84375 C 22.707031 -12.039062 21.257812 -10.671875 19.4375 -9.734375 C 17.625 -8.804688 15.613281 -8.34375 13.40625 -8.34375 C 12.851562 -8.34375 12.304688 -8.367188 11.765625 -8.421875 C 11.234375 -8.484375 10.710938 -8.570312 10.203125 -8.6875 C 9.960938 -8.382812 9.796875 -8.054688 9.703125 -7.703125 C 9.609375 -7.359375 9.5625 -6.941406 9.5625 -6.453125 L 9.5625 -6.328125 C 9.5625 -5.671875 9.816406 -5.117188 10.328125 -4.671875 C 10.847656 -4.234375 11.476562 -4.015625 12.21875 -4.015625 L 17.984375 -4.015625 C 19.210938 -4.015625 20.367188 -3.90625 21.453125 -3.6875 C 22.535156 -3.46875 23.492188 -3.066406 24.328125 -2.484375 C 25.171875 -1.898438 25.832031 -1.070312 26.3125 0 C 26.789062 1.070312 27.03125 2.457031 27.03125 4.15625 L 27.03125 10.265625 C 27.03125 10.921875 26.710938 11.25 26.078125 11.25 L 19 11.25 C 18.695312 11.25 18.476562 11.160156 18.34375 10.984375 C 18.21875 10.804688 18.15625 10.601562 18.15625 10.375 L 18.15625 6.59375 C 18.15625 5.570312 17.914062 4.835938 17.4375 4.390625 C 16.957031 3.953125 16.242188 3.734375 15.296875 3.734375 L 9.15625 3.703125 L 8.625 3.703125 C 7.226562 3.703125 5.992188 3.320312 4.921875 2.5625 C 3.847656 1.8125 3.007812 0.847656 2.40625 -0.328125 C 1.800781 -1.503906 1.5 -2.722656 1.5 -3.984375 L 1.5 -5.171875 C 1.5 -6.566406 1.75 -7.882812 2.25 -9.125 C 2.75 -10.375 3.347656 -11.460938 4.046875 -12.390625 C 3.234375 -13.367188 2.597656 -14.515625 2.140625 -15.828125 C 1.691406 -17.148438 1.46875 -18.613281 1.46875 -20.21875 L 1.46875 -24.625 C 1.46875 -26.414062 1.773438 -28.03125 2.390625 -29.46875 C 3.003906 -30.914062 3.851562 -32.15625 4.9375 -33.1875 C 6.019531 -34.226562 7.28125 -35.023438 8.71875 -35.578125 C 10.164062 -36.140625 11.707031 -36.421875 13.34375 -36.421875 C 14.101562 -36.421875 14.84375 -36.363281 15.5625 -36.25 C 16.289062 -36.132812 16.992188 -35.972656 17.671875 -35.765625 Z M 17.671875 -35.765625 "/></g></g></g></svg>